<svg xmlns="http://www.w3.org/2000/svg" width="512" height="512" viewBox="0 0 512 512" data-svgdocument="" id="_1JIMH7S8f8GlDqCID_Vrh" class="fl-svgdocument" x="0" y="0" style="overflow: hidden;" xmlns:xlink="http://www.w3.org/1999/xlink">
  <defs id="_eh5b2lde2_2" transform="matrix(1.046704259947236, 0, 0, 1.046704259947236, -13.17057849200015, -12.246466700607849)" />
  <g id="_eh5b2lde2_3" transform="matrix(0.6254045067630803, 0, 0, 0.6254045067630803, 98.12159952257275, 125.90496556921961)" fill="#bb4cd7">
    <path id="_eh5b2lde2_4" d="M497.584,0H250.439h-0.88H2.417c0,0-32.407,331.275,247.142,490.43v0.507c0.148-0.086,0.292-0.17,0.44-0.254  c0.148,0.084,0.294,0.168,0.44,0.254v-0.507C529.99,331.274,497.584,0,497.584,0z" stroke="none" fill="#bb4cd7" transform="matrix(0.2762044668197632, 0, 0, 0.22503595054149628, 263.31219482421875, 59.46055603027344)" />
    <circle id="_eh5b2lde2_5" cx="88.385" cy="88.385" r="88.385" stroke="none" fill="#bb4cd7" transform="matrix(1.434722900390625, 0, 0, 1.434722900390625, 123.35506439208984, 18.19900131225586)" />
  </g>
  <path id="_eh5b2lde2_6" fill-rule="evenodd" clip-rule="evenodd" d="M80.559,20.046c-0.336,7.612,0.071,13.931-8.551,28.599  c2.58-8.803,3.378-18.29,0.823-28.62C72.831,20.025,80.442,20.047,80.559,20.046L80.559,20.046z M64.338,56.151  c-7.381,1.549-9.419,0.378-16.077-3.196c-6.153-4.236-7.436-8.435-13.324-15.083c-6.727-8.426-21.465-6.592-29.387-1.545  c2.519,0.247,10.809,5.328,11.262,18.227c2.16,14.836,14.439,23.91,23.937,25.132c14.238,1.526,23.868-2.094,27.624-20.546  c12.848-4.18,25.706-29.41,26.075-39.114l-7.367-0.023c0.187,7.684-7.404,27.73-17.976,34.322  C71.589,42.155,67.329,25.164,64.353,20l-8.244,0.019C63.354,28.243,66.233,43.905,64.338,56.151L64.338,56.151z M23.029,36.919  c-2.221,0.004-4.018,1.807-4.014,4.028c0.004,2.221,1.807,4.018,4.028,4.014s4.018-1.807,4.014-4.028  C27.053,38.713,25.25,36.916,23.029,36.919z M22.992,39.053c-1.061,0.002-1.919,0.863-1.917,1.924  c0.002,1.061,0.863,1.919,1.924,1.917s1.919-0.863,1.917-1.924C24.914,39.91,24.053,39.052,22.992,39.053z" stroke="none" fill="#000000" transform="matrix(1.7132091522216797, 0, 0, 1.7132091522216797, 187.13972832751006, 130.9333485519105)" />
  <path id="_rGo4JkGBRtGsvR6KKicS_" fill="#999999" transform="matrix(0.7760079503059387, 0, 0, 0.7760079503059387, 256.98504638671875, 374.1080017089844)" text="SoundFiles.fm" text-anchor="middle" font-size="100" letter-spacing="0" side="left" offset="0.5" dx="0" dy="0" space="preserve" href="" font-family="Fjalla One" font-scale="contain" x="0" y="0" data-fl-textpath="" d="M-269.3077734375-16.89L-269.3077734375-16.89Q-269.3077734375-19.58 -268.9977734375-21.85Q-268.6777734375-24.12 -268.0377734375-26.76L-268.0377734375-26.76L-258.2277734375-26.76L-258.2277734375-22.71Q-258.2277734375-19.34 -257.8077734375-16.75Q-257.3977734375-14.16 -256.4477734375-12.38Q-255.4977734375-10.6 -253.9077734375-9.69Q-252.3177734375-8.79 -250.0277734375-8.79L-250.0277734375-8.79Q-246.4077734375-8.79 -244.5077734375-10.77Q-242.5977734375-12.74 -242.5977734375-16.55L-242.5977734375-16.55Q-242.5977734375-18.51 -242.8677734375-20.14Q-243.13777343750002-21.78 -243.79777343749998-23.39Q-244.4577734375-25 -245.5777734375-26.78Q-246.7077734375-28.56 -248.4577734375-30.76L-248.4577734375-30.76L-261.6477734375-46.44Q-265.1577734375-50.93 -267.0677734375-55.49Q-268.9677734375-60.06 -268.9677734375-65.23L-268.9677734375-65.23Q-268.9677734375-69.38 -267.6777734375-72.85Q-266.3777734375-76.32 -263.9377734375-78.83Q-261.4977734375-81.35 -257.9077734375-82.74Q-254.3177734375-84.13 -249.7777734375-84.13L-249.7777734375-84.13Q-244.2577734375-84.13 -240.5777734375-82.57Q-236.88777343750002-81.01 -234.6877734375-78.47Q-232.4977734375-75.93 -231.5877734375-72.78Q-230.6877734375-69.63 -230.6877734375-66.46L-230.6877734375-66.46Q-230.6877734375-63.77 -231.1077734375-61.5Q-231.5177734375-59.23 -232.0577734375-56.49L-232.0577734375-56.49L-241.8177734375-56.49L-241.8177734375-60.45Q-241.8177734375-67.09 -243.7277734375-70.63Q-245.6277734375-74.17 -249.9277734375-74.17L-249.9277734375-74.17Q-253.4877734375-74.17 -255.2477734375-72.19Q-257.0077734375-70.21 -257.0077734375-66.89L-257.0077734375-66.89Q-257.0077734375-65.14 -256.7377734375-63.72Q-256.4677734375-62.3 -255.9577734375-61.11Q-255.4477734375-59.91 -254.7077734375-58.79Q-253.9777734375-57.67 -253.04777343749998-56.45L-253.04777343749998-56.45L-238.3577734375-38.67Q-234.3477734375-33.45 -232.1977734375-28.64Q-230.0577734375-23.83 -230.0577734375-18.46L-230.0577734375-18.46Q-230.0577734375-14.01 -231.4477734375-10.45Q-232.8377734375-6.88 -235.4277734375-4.39Q-238.0077734375-1.9 -241.6777734375-0.56Q-245.3377734375 0.78 -249.9277734375 0.78L-249.9277734375 0.78Q-255.5877734375 0.78 -259.3277734375-0.73Q-263.0577734375-2.25 -265.2877734375-4.74Q-267.5077734375-7.23 -268.4077734375-10.4Q-269.3077734375-13.57 -269.3077734375-16.89ZM-203.2480859375 0.73L-203.2480859375 0.73Q-205.3980859375 0.73 -207.61808593749998 0.39Q-209.8380859375 0.05 -211.9180859375-1.03Q-213.9880859375-2.1 -215.8180859375-4.1Q-217.6480859375-6.1 -219.0180859375-9.38Q-220.3880859375-12.65 -221.1680859375-17.43Q-221.9480859375-22.22 -221.9480859375-28.86L-221.9480859375-28.86L-221.9480859375-39.4Q-221.9480859375-45.95 -221.1380859375-50.61Q-220.3380859375-55.27 -218.9480859375-58.45Q-217.5580859375-61.62 -215.6980859375-63.5Q-213.8380859375-65.38 -211.7680859375-66.38Q-209.6880859375-67.38 -207.4980859375-67.7Q-205.2980859375-68.02 -203.1980859375-68.02L-203.1980859375-68.02Q-201.1980859375-68.02 -199.0480859375-67.72Q-196.8980859375-67.43 -194.8480859375-66.48Q-192.7980859375-65.53 -190.9680859375-63.65Q-189.1380859375-61.77 -187.7480859375-58.59Q-186.3480859375-55.42 -185.5480859375-50.71Q-184.7380859375-46 -184.7380859375-39.4L-184.7380859375-39.4L-184.7380859375-28.86Q-184.7380859375-22.31 -185.5680859375-17.58Q-186.3980859375-12.84 -187.8180859375-9.57Q-189.2380859375-6.3 -191.0880859375-4.27Q-192.9480859375-2.25 -194.9980859375-1.12Q-197.0480859375 0 -199.1680859375 0.37Q-201.2980859375 0.73 -203.2480859375 0.73ZM-203.1480859375-8.79L-203.1480859375-8.79Q-201.4880859375-8.79 -200.3380859375-9.64Q-199.1980859375-10.5 -198.4880859375-12.45Q-197.7780859375-14.4 -197.45808593750002-17.6Q-197.1480859375-20.8 -197.1480859375-25.54L-197.1480859375-25.54L-197.1480859375-42.09Q-197.1480859375-46.83 -197.45808593750002-50.05Q-197.7780859375-53.27 -198.4880859375-55.25Q-199.1980859375-57.23 -200.3380859375-58.11Q-201.4880859375-58.98 -203.1480859375-58.98L-203.1480859375-58.98Q-204.9080859375-58.98 -206.1080859375-58.11Q-207.2980859375-57.23 -208.0780859375-55.25Q-208.8580859375-53.27 -209.20808593750002-50.05Q-209.5480859375-46.83 -209.5480859375-42.09L-209.5480859375-42.09L-209.5480859375-25.54Q-209.5480859375-20.8 -209.20808593750002-17.6Q-208.8580859375-14.4 -208.0780859375-12.45Q-207.2980859375-10.5 -206.1080859375-9.64Q-204.9080859375-8.79 -203.1480859375-8.79ZM-173.7013671875-15.72L-173.7013671875-67.24L-161.3513671875-67.24L-161.3513671875-16.7Q-161.3513671875-12.26 -159.98136718749998-10.52Q-158.6213671875-8.79 -155.98136718749998-8.79L-155.98136718749998-8.79Q-154.1213671875-8.79 -152.3713671875-9.81Q-150.6113671875-10.84 -149.1913671875-12.74L-149.1913671875-12.74L-149.1913671875-67.24L-136.8413671875-67.24L-136.8413671875 0L-146.2613671875 0L-147.48136718749998-7.18L-147.5313671875-7.18Q-149.0013671875-4.88 -150.6313671875-3.34Q-152.2713671875-1.81 -154.0513671875-0.9Q-155.8313671875 0 -157.6913671875 0.39Q-159.5413671875 0.78 -161.4013671875 0.78L-161.4013671875 0.78Q-167.3113671875 0.78 -170.5113671875-3.32Q-173.7013671875-7.42 -173.7013671875-15.72L-173.7013671875-15.72ZM-123.9478515625 0L-123.9478515625-67.24L-114.4278515625-67.24L-113.3078515625-60.06L-113.3078515625-60.01Q-111.83785156249999-62.3 -110.1578515625-63.84Q-108.4678515625-65.38 -106.6678515625-66.31Q-104.8578515625-67.24 -102.9778515625-67.63Q-101.0978515625-68.02 -99.2478515625-68.02L-99.2478515625-68.02Q-93.33785156249999-68.02 -90.1378515625-63.89Q-86.9378515625-59.77 -86.9378515625-51.51L-86.9378515625-51.51L-86.9378515625 0L-99.2878515625 0L-99.2878515625-51.07Q-99.2878515625-55.52 -100.6578515625-57.25Q-102.0278515625-58.98 -104.6678515625-58.98L-104.6678515625-58.98Q-106.5178515625-58.98 -108.3478515625-57.76Q-110.1778515625-56.54 -111.5978515625-54.39L-111.5978515625-54.39L-111.5978515625 0L-123.9478515625 0ZM-61.253164062500005 0.78L-61.253164062500005 0.78Q-62.373164062499995 0.78 -63.8931640625 0.56Q-65.4031640625 0.34 -67.0131640625-0.44Q-68.6231640625-1.22 -70.1931640625-2.78Q-71.7531640625-4.35 -72.9731640625-7.06Q-74.1931640625-9.77 -74.9531640625-13.77Q-75.7031640625-17.77 -75.7031640625-23.49L-75.7031640625-23.49L-75.7031640625-44.82Q-75.7031640625-50.49 -74.9031640625-54.39Q-74.0931640625-58.3 -72.7831640625-60.86Q-71.4631640625-63.43 -69.8231640625-64.87Q-68.1931640625-66.31 -66.5531640625-66.99Q-64.9131640625-67.68 -63.4231640625-67.82Q-61.9431640625-67.97 -60.9631640625-67.97L-60.9631640625-67.97Q-59.1531640625-67.97 -57.5431640625-67.48Q-55.9331640625-66.99 -54.613164062500005-66.19Q-53.2931640625-65.38 -52.2731640625-64.38Q-51.2431640625-63.38 -50.5631640625-62.35L-50.5631640625-62.35L-50.513164062499996-62.4L-50.9031640625-70.9L-50.9031640625-88.82L-38.6031640625-88.82L-38.6031640625 0L-48.2131640625 0L-49.2931640625-6.25Q-50.123164062499995-4.93 -51.1931640625-3.66Q-52.2731640625-2.39 -53.733164062499995-1.39Q-55.2031640625-0.39 -57.0531640625 0.2Q-58.9131640625 0.78 -61.253164062500005 0.78ZM-57.0531640625-8.79L-57.0531640625-8.79Q-55.8331640625-8.79 -54.8831640625-9.2Q-53.9331640625-9.62 -53.1731640625-10.28Q-52.4131640625-10.94 -51.8531640625-11.82Q-51.2931640625-12.7 -50.9031640625-13.62L-50.9031640625-13.62L-50.9031640625-54.05Q-51.8331640625-56.1 -53.373164062499995-57.54Q-54.9031640625-58.98 -57.1031640625-58.98L-57.1031640625-58.98Q-58.473164062500004-58.98 -59.5931640625-58.5Q-60.7131640625-58.01 -61.5431640625-56.67Q-62.373164062499995-55.32 -62.8431640625-52.95Q-63.3031640625-50.59 -63.3031640625-46.83L-63.3031640625-46.83L-63.3031640625-21.04Q-63.3031640625-17.29 -62.8431640625-14.89Q-62.373164062499995-12.5 -61.5431640625-11.16Q-60.7131640625-9.81 -59.5731640625-9.3Q-58.4231640625-8.79 -57.0531640625-8.79ZM-25.1209765625 0L-25.1209765625-83.4L 6.759023437499998-83.4L 6.759023437499998-73.44L-12.470976562499999-73.44L-12.470976562499999-48.49L 2.6090234374999994-48.49L 2.6090234374999994-38.53L-12.470976562499999-38.53L-12.470976562499999 0L-25.1209765625 0ZM 21.021054687499998-76.86L 21.021054687499998-76.86Q 17.6010546875-76.86  15.6210546875-78.91Q 13.6510546875-80.96  13.6510546875-84.91L 13.6510546875-84.91Q 13.6510546875-87.11  14.1610546875-88.6Q 14.6710546875-90.09  15.6210546875-90.99Q 16.5810546875-91.89  17.9410546875-92.31Q 19.3110546875-92.72  21.071054687500002-92.72L 21.071054687500002-92.72Q 24.7310546875-92.72  26.6310546875-90.87Q 28.5410546875-89.01  28.5410546875-84.91L 28.5410546875-84.91Q 28.5410546875-81.1  26.6110546875-78.98Q 24.6810546875-76.86  21.021054687499998-76.86ZM 14.6210546875 0L 14.6210546875-67.24L 26.9810546875-67.24L 26.9810546875 0L 14.6210546875 0ZM 40.0605078125 0L 40.0605078125-88.82L 52.4205078125-88.82L 52.4205078125 0L 40.0605078125 0ZM 81.5199609375 0.73L 81.5199609375 0.73Q 77.16996093750001 0.73  73.8299609375-0.88Q 70.4799609375-2.49  68.1899609375-5.91Q 65.8899609375-9.33  64.7199609375-14.67Q 63.5499609375-20.02  63.5499609375-27.54L 63.5499609375-27.54L 63.5499609375-40.23Q 63.5499609375-46.63  64.4999609375-51.2Q 65.4499609375-55.76  66.9899609375-58.86Q 68.5299609375-61.96  70.5599609375-63.77Q 72.5799609375-65.58  74.7299609375-66.53Q 76.8799609375-67.48  78.99996093749999-67.75Q 81.1299609375-68.02  82.9299609375-68.02L 82.9299609375-68.02Q 86.24996093749999-68.02  89.3299609375-67.02Q 92.4099609375-66.02  94.74996093749999-63.6Q 97.0899609375-61.18  98.4899609375-57.13Q 99.8799609375-53.08  99.8799609375-47.02L 99.8799609375-47.02Q 99.8799609375-44.97  99.7599609375-42.87Q 99.6299609375-40.77  99.43996093749999-38.75Q 99.2399609375-36.72  98.9299609375-34.81Q 98.6099609375-32.91  98.2699609375-31.3L 98.2699609375-31.3L 75.9499609375-31.3L 75.9499609375-24.46Q 75.9499609375-20.07  76.2899609375-17.07Q 76.6399609375-14.06  77.4399609375-12.23Q 78.24996093749999-10.4  79.6399609375-9.59Q 81.0299609375-8.79  83.1299609375-8.79L 83.1299609375-8.79Q 84.24996093749999-8.79  85.3299609375-9.25Q 86.3999609375-9.72  87.2099609375-10.79Q 88.0099609375-11.87  88.49996093749999-13.65Q 88.9899609375-15.43  88.9899609375-18.07L 88.9899609375-18.07L 88.9899609375-20.17L 99.2899609375-20.17L 99.2899609375-17.58Q 99.2899609375-8.01  94.72996093750001-3.64Q 90.1599609375 0.73  81.5199609375 0.73ZM 75.9499609375-39.6L 88.3499609375-39.6Q 88.3999609375-40.14  88.4499609375-41.04Q 88.49996093749999-41.94  88.5299609375-42.92Q 88.5499609375-43.9  88.5499609375-44.85Q 88.5499609375-45.8  88.5499609375-46.48L 88.5499609375-46.48Q 88.5499609375-53.13  86.9899609375-56.05Q 85.41996093750001-58.98  82.3499609375-58.98L 82.3499609375-58.98Q 80.7399609375-58.98  79.5199609375-58.23Q 78.2999609375-57.47  77.5099609375-55.69Q 76.7299609375-53.91  76.3399609375-50.98Q 75.9499609375-48.05  75.9499609375-43.7L 75.9499609375-43.7L 75.9499609375-39.6ZM 107.6894921875-14.06L 107.6894921875-14.06Q 107.6894921875-16.26  108.1094921875-18.31Q 108.5194921875-20.36  108.9094921875-21.58L 108.9094921875-21.58L 117.5994921875-21.58Q 117.5994921875-17.92  117.9694921875-15.45Q 118.3394921875-12.99  119.1694921875-11.52Q 119.9994921875-10.06  121.3894921875-9.42Q 122.7794921875-8.79  124.7794921875-8.79L 124.7794921875-8.79Q 127.5594921875-8.79  128.8294921875-10.35Q 130.0994921875-11.91  130.0994921875-13.96L 130.0994921875-13.96Q 130.0994921875-15.04  129.80949218749998-16.02Q 129.5194921875-16.99  128.9794921875-17.99Q 128.4394921875-18.99  127.6594921875-20.02Q 126.8794921875-21.04  125.8994921875-22.27L 125.8994921875-22.27L 116.8694921875-32.91Q 115.1094921875-35.11  113.4794921875-37.38Q 111.8394921875-39.65  110.5994921875-42.07Q 109.3494921875-44.48  108.5894921875-47.12Q 107.8394921875-49.76  107.8394921875-52.69L 107.8394921875-52.69Q 107.8394921875-56.59  109.1794921875-59.47Q 110.5194921875-62.35  112.7894921875-64.26Q 115.0594921875-66.16  118.0394921875-67.09Q 121.01949218749999-68.02  124.3394921875-68.02L 124.3394921875-68.02Q 127.9994921875-68.02  130.9294921875-67.14Q 133.8594921875-66.26  135.9594921875-64.5Q 138.05949218749998-62.74  139.1894921875-60.13Q 140.30949218749998-57.52  140.30949218749998-54.05L 140.30949218749998-54.05Q 140.30949218749998-51.71  139.8894921875-49.51Q 139.4794921875-47.31  139.0894921875-45.75L 139.0894921875-45.75L 130.5394921875-45.75Q 130.4894921875-49.07  130.2494921875-51.56Q 130.0094921875-54.05  129.3494921875-55.69Q 128.6894921875-57.32  127.5394921875-58.15Q 126.3894921875-58.98  124.5394921875-58.98L 124.5394921875-58.98Q 122.9294921875-58.98  121.8494921875-58.47Q 120.7794921875-57.96  120.1194921875-57.13Q 119.4594921875-56.3  119.18949218750001-55.27Q 118.9194921875-54.25  118.9194921875-53.17L 118.9194921875-53.17Q 118.9194921875-50.83  120.0394921875-48.83Q 121.1694921875-46.83  123.01949218749999-44.48L 123.01949218749999-44.48L 132.8894921875-32.91Q 133.9594921875-31.59  135.3794921875-29.71Q 136.7894921875-27.83  138.05949218749998-25.56Q 139.3294921875-23.29  140.2094921875-20.61Q 141.0894921875-17.92  141.0894921875-14.99L 141.0894921875-14.99Q 141.0894921875-11.43  139.9694921875-8.52Q 138.8394921875-5.62  136.64949218750002-3.56Q 134.4494921875-1.51  131.2494921875-0.39Q 128.0494921875 0.73  123.9494921875 0.73L 123.9494921875 0.73Q 120.5794921875 0.73  117.5994921875-0.02Q 114.6194921875-0.78  112.4294921875-2.51Q 110.2294921875-4.25  108.9594921875-7.08Q 107.6894921875-9.91  107.6894921875-14.06ZM 148.8980078125-8.74L 148.8980078125-8.74Q 148.8980078125-13.92  150.9480078125-16.16Q 152.9980078125-18.41  156.5180078125-18.41L 156.5180078125-18.41Q 160.1780078125-18.41  162.1780078125-16.02Q 164.1880078125-13.62  164.1880078125-8.74L 164.1880078125-8.74Q 164.1880078125-4.25  162.1580078125-1.78Q 160.1280078125 0.68  156.4680078125 0.68L 156.4680078125 0.68Q 152.9980078125 0.68  150.9480078125-1.71Q 148.8980078125-4.1  148.8980078125-8.74ZM 176.9308984375 0L 176.9308984375-58.45L 171.1208984375-58.45L 171.1208984375-67.24L 176.9308984375-67.24L 176.9308984375-72.07Q 176.9308984375-77.54  178.0508984375-80.98Q 179.1708984375-84.42  181.1508984375-86.35Q 183.1308984375-88.28  185.7908984375-88.96Q 188.4508984375-89.65  191.5308984375-89.65L 191.5308984375-89.65Q 192.4108984375-89.65  193.50089843749998-89.55Q 194.6008984375-89.45  195.7008984375-89.23Q 196.8008984375-89.01  197.8508984375-88.72Q 198.9008984375-88.43  199.7308984375-87.99L 199.7308984375-87.99L 199.7308984375-79.3Q 197.6808984375-79.83  195.1408984375-79.83L 195.1408984375-79.83Q 193.9208984375-79.83  192.8208984375-79.44Q 191.7208984375-79.05  190.8908984375-78.15Q 190.0608984375-77.25  189.5708984375-75.76Q 189.09089843750002-74.27  189.09089843750002-72.07L 189.09089843750002-72.07L 189.09089843750002-67.24L 198.4108984375-67.24L 198.4108984375-58.45L 189.09089843750002-58.45L 189.09089843750002 0L 176.9308984375 0ZM 205.3490234375 0L 205.3490234375-67.24L 214.9190234375-67.24L 215.9890234375-60.06L 215.9890234375-60.01Q 217.4590234375-62.3  219.1190234375-63.84Q 220.7790234375-65.38  222.5590234375-66.31Q 224.3390234375-67.24  226.2190234375-67.63Q 228.0990234375-68.02  229.9590234375-68.02L 229.9590234375-68.02Q 233.9090234375-68.02  236.6490234375-66.11Q 239.3790234375-64.21  240.7990234375-60.4L 240.7990234375-60.4Q 242.2590234375-62.6  243.8990234375-64.06Q 245.5290234375-65.53  247.2890234375-66.41Q 249.0490234375-67.29  250.8590234375-67.65Q 252.6590234375-68.02  254.5190234375-68.02L 254.5190234375-68.02Q 260.3790234375-68.02  263.5790234375-63.89Q 266.7690234375-59.77  266.7690234375-51.51L 266.7690234375-51.51L 266.7690234375 0L 254.41902343750002 0L 254.41902343750002-51.07Q 254.41902343750002-53.27  254.07902343749998-54.79Q 253.7390234375-56.3  253.0490234375-57.23Q 252.3690234375-58.15  251.2890234375-58.57Q 250.2190234375-58.98  248.7090234375-58.98L 248.7090234375-58.98Q 246.9990234375-58.98  245.2890234375-57.74Q 243.57902343749998-56.49  242.1590234375-54.3L 242.1590234375-54.3Q 242.2090234375-53.86  242.2090234375-53.42Q 242.2090234375-52.98  242.2090234375-52.54L 242.2090234375-52.54L 242.2090234375 0L 229.8590234375 0L 229.8590234375-51.07Q 229.8590234375-53.27  229.5190234375-54.79Q 229.1790234375-56.3  228.4890234375-57.23Q 227.8090234375-58.15  226.7290234375-58.57Q 225.6590234375-58.98  224.1490234375-58.98L 224.1490234375-58.98Q 222.4890234375-58.98  220.7790234375-57.76Q 219.0690234375-56.54  217.6990234375-54.39L 217.6990234375-54.39L 217.6990234375 0L 205.3490234375 0Z"></path>
</svg>